<?xml version="1.0" standalone="no"?>
<!DOCTYPE svg PUBLIC "-//W3C//DTD SVG 20010904//EN"
 "http://www.w3.org/TR/2001/REC-SVG-20010904/DTD/svg10.dtd">
<svg version="1.0" xmlns="http://www.w3.org/2000/svg"
 width="2048.000000pt" height="2048.000000pt" viewBox="0 0 2048.000000 2048.000000"
 preserveAspectRatio="xMidYMid meet">

<g transform="translate(0.000000,2048.000000) scale(0.100000,-0.100000)"
fill="#000000" stroke="none">
<path d="M14395 19451 c-11 -5 -47 -12 -80 -15 -53 -7 -109 -21 -235 -58 -19
-6 -68 -29 -110 -53 -41 -23 -109 -58 -150 -78 -41 -20 -111 -57 -155 -82 -44
-25 -99 -55 -123 -65 -54 -25 -148 -96 -192 -147 -19 -21 -68 -64 -109 -95
-42 -32 -116 -88 -166 -125 -146 -111 -261 -232 -358 -378 -47 -71 -107 -152
-133 -180 -63 -67 -176 -216 -248 -328 -84 -130 -211 -378 -250 -488 -107
-299 -151 -416 -163 -434 -7 -11 -13 -29 -13 -40 0 -11 -6 -29 -14 -40 -7 -11
-21 -45 -30 -75 -10 -30 -24 -69 -32 -87 -8 -17 -14 -34 -14 -38 0 -8 -68
-203 -105 -300 -12 -33 -28 -85 -34 -115 -31 -150 -46 -212 -67 -285 -26 -91
-52 -212 -65 -300 -27 -190 -71 -608 -89 -830 -5 -71 -14 -155 -20 -185 -12
-58 -23 -196 -41 -520 -6 -107 -15 -200 -20 -206 -15 -19 -112 -36 -179 -31
-36 2 -110 10 -165 17 -113 14 -440 7 -540 -11 -173 -32 -288 -85 -392 -183
l-33 -30 0 39 c0 85 -58 332 -95 406 -14 28 -49 76 -78 107 -29 31 -59 73 -66
92 -21 51 -40 70 -73 70 -36 0 -64 -28 -78 -80 -18 -68 -165 -365 -215 -435
-57 -80 -110 -113 -208 -130 -96 -17 -237 -70 -299 -111 -27 -19 -51 -34 -53
-34 -1 0 -5 44 -9 98 -4 53 -11 111 -17 129 -5 17 -14 87 -19 155 -13 185 -30
339 -39 373 -5 17 -30 98 -56 180 -26 83 -53 170 -60 195 -7 25 -54 171 -104
326 -50 154 -91 286 -91 293 0 12 -51 161 -89 261 -12 30 -33 100 -47 155 -55
222 -79 290 -141 404 -60 112 -106 172 -197 255 -93 83 -131 114 -185 146 -24
14 -70 44 -103 68 -122 88 -137 93 -448 132 -41 6 -102 16 -135 24 -205 50
-200 49 -399 43 -267 -8 -380 -41 -524 -150 -54 -41 -107 -72 -302 -175 -47
-25 -101 -57 -121 -72 -133 -96 -380 -344 -454 -456 -108 -164 -137 -247 -157
-449 -22 -230 -7 -1107 21 -1205 10 -38 30 -120 56 -240 26 -120 74 -226 156
-350 97 -147 112 -177 144 -291 41 -147 78 -213 165 -299 41 -41 83 -86 91
-100 29 -44 192 -212 231 -236 37 -24 40 -24 270 -21 l233 3 80 38 c44 21 103
45 130 53 111 33 219 115 262 196 8 16 42 67 76 114 34 47 75 104 91 127 26
36 174 236 181 244 2 2 22 -6 45 -18 75 -38 121 -96 195 -243 46 -91 96 -172
148 -239 l78 -101 -44 -41 c-61 -56 -127 -146 -228 -306 -46 -74 -109 -162
-139 -195 -172 -186 -347 -427 -456 -630 -30 -56 -104 -261 -104 -289 0 -7
-14 -60 -31 -117 -47 -159 -111 -390 -146 -524 -9 -33 -28 -100 -44 -150 -51
-168 -52 -177 -57 -504 -5 -348 -3 -359 56 -448 l35 -54 -42 -57 c-36 -50 -89
-148 -117 -219 l-9 -23 -95 43 c-125 57 -486 248 -529 281 -40 30 -54 32 -75
10 -23 -22 -20 -60 7 -79 41 -30 481 -268 570 -309 86 -39 89 -41 83 -69 -3
-16 -6 -37 -6 -46 0 -9 -12 -22 -26 -28 -25 -11 -42 -5 -213 76 -251 120 -621
266 -641 253 -8 -5 -16 -21 -18 -35 -4 -35 22 -51 218 -128 85 -34 266 -115
401 -180 135 -66 253 -119 263 -119 14 0 16 -15 16 -119 0 -127 24 -278 58
-368 10 -26 47 -91 83 -143 35 -52 67 -100 72 -107 5 -8 -18 -25 -75 -53 -102
-51 -146 -93 -190 -178 -31 -63 -33 -72 -36 -192 -3 -108 -1 -133 18 -182 37
-100 130 -204 252 -281 30 -19 70 -41 203 -112 50 -26 104 -58 120 -70 113
-83 210 -115 350 -115 l100 -1 -40 -23 c-22 -14 -58 -35 -79 -48 -68 -40 -193
-156 -241 -222 -95 -133 -135 -265 -135 -444 0 -109 2 -123 26 -168 44 -82 94
-144 148 -180 46 -31 57 -34 122 -34 64 0 76 3 132 37 82 50 147 106 178 152
14 21 45 97 69 169 73 214 92 249 198 344 51 46 110 95 132 110 47 30 156 88
166 88 3 0 9 -14 13 -32 5 -24 2 -34 -14 -45 -27 -19 -42 -50 -88 -184 -57
-163 -127 -319 -184 -406 -62 -95 -107 -187 -142 -293 l-29 -85 -126 4 c-94 2
-144 -1 -201 -14 -135 -31 -294 -84 -331 -109 -35 -24 -121 -152 -184 -273
-15 -29 -29 -53 -31 -53 -3 0 -37 24 -77 54 -40 29 -81 58 -93 64 -52 27 -177
52 -258 52 -77 0 -90 -3 -152 -35 -67 -35 -361 -135 -396 -135 -41 0 -118 -52
-182 -122 -73 -80 -132 -184 -176 -313 -41 -117 -53 -205 -48 -364 4 -115 9
-153 36 -246 17 -60 38 -145 47 -187 15 -73 31 -116 95 -253 24 -51 51 -129
112 -325 36 -118 165 -277 454 -565 103 -102 120 -115 235 -173 70 -36 147
-67 178 -72 89 -16 469 -13 522 5 24 8 78 19 119 25 41 5 100 14 130 20 113
22 207 42 267 56 92 21 105 19 132 -22 53 -77 123 -105 146 -58 13 27 45 17
95 -31 19 -18 77 -56 129 -85 130 -72 131 -72 131 -98 0 -13 13 -37 29 -53
l29 -29 319 0 318 0 74 -30 c83 -34 99 -36 127 -15 10 8 27 15 38 15 23 0 142
61 227 116 36 24 76 48 90 54 13 6 33 16 44 23 11 7 44 25 72 41 62 34 116
101 170 210 l37 76 45 0 c37 0 49 -5 66 -26 17 -22 28 -25 80 -26 76 -1 139
10 190 32 22 10 54 22 70 27 21 7 31 17 33 34 4 31 36 54 49 36 6 -7 15 -39
22 -72 48 -224 89 -275 294 -359 29 -12 37 -20 37 -41 0 -18 9 -31 33 -45 29
-19 46 -20 187 -17 85 2 195 10 245 17 71 10 90 10 93 0 12 -35 44 -52 90 -48
26 2 90 -2 142 -10 52 -8 152 -16 222 -19 146 -5 179 4 261 75 27 23 56 42 65
42 31 0 83 40 169 130 47 50 94 90 104 90 10 0 23 9 29 21 13 23 0 23 205 0
118 -13 162 -22 315 -65 145 -42 199 -54 280 -65 36 -5 99 -15 140 -21 46 -8
128 -10 210 -7 118 5 146 9 224 37 131 46 159 63 234 142 37 40 110 117 162
172 109 115 213 234 253 288 15 20 75 87 135 148 154 160 172 205 237 580 8
47 19 103 24 125 13 51 14 252 1 330 -6 33 -17 94 -25 135 -9 41 -20 111 -25
155 -6 44 -15 94 -20 110 -5 17 -16 56 -25 87 -38 146 -100 230 -215 287 -126
64 -214 81 -449 88 -209 6 -209 6 -369 -52 -184 -66 -303 -197 -398 -435 -20
-52 -39 -97 -41 -99 -2 -3 -16 7 -31 21 -45 41 -145 104 -244 154 -71 36 -107
48 -155 52 l-62 5 -10 46 c-19 89 -25 210 -11 226 15 19 -1 65 -23 65 -8 0
-18 22 -26 52 -7 29 -25 98 -41 153 -15 55 -36 136 -45 180 -41 191 -118 422
-186 556 -16 32 -35 75 -43 96 -8 21 -42 101 -76 178 -42 93 -65 160 -70 200
-7 59 -7 61 24 86 87 73 403 402 438 455 35 54 46 63 78 68 48 8 181 64 240
102 87 56 244 179 284 222 23 25 56 68 75 96 19 28 50 69 70 91 20 22 64 79
99 126 l63 86 62 -9 c247 -32 752 -212 922 -327 50 -34 95 -23 95 24 0 42 -69
87 -255 170 -220 98 -522 191 -697 216 -52 8 -88 18 -88 24 0 20 36 118 63
170 14 28 44 68 67 90 44 42 90 121 90 153 0 15 10 20 48 25 26 3 207 58 402
122 195 64 384 123 419 130 67 14 81 25 81 62 0 32 -34 47 -89 39 -25 -3 -213
-62 -419 -131 -335 -112 -422 -137 -422 -120 0 3 7 22 16 43 34 80 45 131 51
234 l6 108 186 99 c371 197 587 298 760 356 65 21 93 26 131 21 52 -7 80 8 80
43 0 35 -42 61 -100 61 -115 0 -442 -138 -827 -348 -133 -73 -246 -132 -251
-132 -13 0 -81 106 -98 152 -11 31 -14 104 -14 315 0 151 -5 293 -10 316 -6
23 -15 92 -20 152 -5 61 -17 146 -25 190 -8 44 -22 127 -30 185 -8 58 -21 134
-30 170 -8 36 -19 85 -24 110 -5 25 -21 89 -35 144 -14 54 -26 105 -26 114 0
8 -20 79 -44 156 -25 78 -47 157 -51 176 -14 74 -78 248 -126 341 -47 91 -75
131 -207 294 -31 38 -82 106 -112 150 -93 135 -231 304 -311 381 -76 74 -92
87 -206 169 l-63 45 20 51 c11 27 38 77 60 110 47 71 190 358 190 382 0 41
175 381 225 437 12 14 39 52 60 85 20 33 52 76 70 95 97 101 274 354 358 512
58 107 199 305 306 428 78 89 104 124 145 200 54 98 121 240 136 285 38 120
289 570 410 735 62 86 156 266 215 415 56 140 124 281 158 327 13 18 71 123
127 233 57 110 122 229 145 265 67 102 133 248 170 375 35 123 59 191 76 225
52 103 104 252 126 365 26 137 31 186 32 317 1 140 -8 174 -81 289 -18 30 -42
71 -53 91 -70 134 -159 216 -335 307 -204 106 -225 111 -424 110 -94 0 -180
-4 -191 -8z m393 -110 c110 -44 261 -121 318 -164 69 -50 97 -84 145 -172 18
-33 47 -82 64 -110 59 -93 75 -141 75 -226 0 -43 -4 -98 -10 -121 -5 -24 -14
-72 -20 -108 -25 -161 -46 -231 -117 -390 -34 -74 -57 -140 -83 -230 -36 -126
-100 -277 -156 -366 -48 -77 -168 -299 -232 -429 -13 -27 -36 -65 -50 -84 -34
-45 -122 -227 -167 -343 -49 -126 -158 -338 -210 -407 -98 -130 -389 -645
-409 -726 -25 -98 -167 -359 -244 -448 -142 -164 -276 -349 -348 -482 -80
-150 -248 -390 -338 -485 -19 -19 -50 -60 -70 -90 -19 -30 -50 -74 -68 -97
-77 -100 -200 -339 -250 -488 -22 -67 -128 -275 -184 -363 -21 -31 -43 -72
-51 -89 -7 -18 -18 -33 -23 -33 -5 0 -41 28 -80 63 -39 34 -93 76 -119 92 -52
33 -58 58 -10 48 34 -7 59 10 59 41 0 82 91 328 160 434 21 32 55 84 76 116
21 33 61 82 89 110 28 28 79 94 112 146 34 52 75 111 91 130 16 19 46 66 67
105 54 96 150 213 351 426 88 93 112 126 176 246 41 76 99 191 128 256 29 65
68 143 87 175 19 31 51 86 70 122 20 36 43 74 53 85 9 11 31 40 48 65 16 25
45 61 64 81 96 105 180 225 229 329 109 233 148 297 318 525 33 44 77 109 97
145 21 36 48 78 61 93 13 16 23 33 23 38 0 5 11 27 24 48 52 82 137 287 204
491 46 143 91 258 135 345 35 72 70 148 77 170 7 22 20 56 30 75 23 47 65 170
87 255 14 55 18 111 18 260 0 187 0 191 -27 246 -27 54 -72 101 -225 236 -94
82 -208 110 -330 82 -92 -22 -269 -81 -339 -114 -60 -29 -86 -51 -175 -145
-162 -173 -257 -270 -343 -345 -88 -78 -177 -185 -225 -268 -40 -71 -120 -282
-155 -412 -15 -55 -33 -116 -40 -135 -7 -19 -29 -84 -49 -145 -20 -60 -49
-141 -65 -180 -16 -38 -39 -99 -51 -135 -13 -36 -58 -135 -100 -220 -101 -200
-172 -418 -211 -645 -5 -33 -16 -91 -24 -130 -8 -38 -19 -97 -26 -130 -6 -33
-22 -101 -35 -150 -13 -50 -28 -115 -35 -145 -6 -30 -18 -86 -26 -125 -8 -38
-19 -99 -24 -135 -6 -36 -13 -72 -16 -80 -3 -8 -12 -51 -20 -95 -7 -44 -20
-109 -29 -145 -8 -36 -20 -90 -25 -120 -6 -30 -17 -82 -25 -115 -8 -33 -24
-100 -36 -150 -11 -49 -31 -117 -44 -150 -32 -87 -81 -242 -94 -300 -25 -114
-72 -333 -96 -450 -10 -44 -30 -118 -46 -165 -41 -124 -119 -445 -119 -491 0
-21 -3 -39 -7 -39 -4 0 -48 20 -98 44 -291 142 -387 186 -405 186 -20 0 -20 1
4 43 14 24 36 61 48 84 13 22 41 71 63 109 l40 69 3 148 c3 123 1 152 -13 173
-22 33 -48 30 -86 -11 -25 -27 -42 -35 -67 -35 l-34 0 6 63 c3 34 12 159 20
277 9 118 22 274 31 345 9 72 22 202 30 290 19 212 43 435 49 460 3 11 10 67
16 125 13 142 35 270 60 360 28 99 76 304 85 360 4 25 16 68 27 95 11 28 42
115 69 195 27 80 54 154 59 165 5 11 12 31 15 45 4 14 18 50 30 80 36 84 97
245 170 450 59 165 186 434 245 520 10 14 30 46 46 71 40 65 159 221 230 301
73 84 88 103 150 203 67 109 208 247 395 388 85 64 189 150 233 191 43 42 101
87 130 101 28 13 87 45 131 70 44 25 107 58 140 74 33 15 71 33 85 40 14 6 51
27 82 45 31 19 92 46 136 60 72 23 108 31 242 55 25 5 113 9 197 10 129 1 160
-2 201 -18z m-90 -491 c28 -17 52 -35 52 -41 0 -5 16 -17 35 -25 45 -18 170
-136 183 -172 48 -128 34 -358 -32 -555 -46 -137 -101 -269 -168 -402 -56
-112 -62 -127 -144 -385 -47 -145 -137 -354 -181 -420 -12 -19 -23 -38 -23
-42 0 -4 -13 -27 -29 -50 -16 -24 -41 -63 -55 -88 -15 -25 -50 -77 -79 -117
-158 -218 -205 -288 -258 -389 -33 -62 -59 -118 -59 -126 0 -32 -176 -292
-225 -333 -62 -51 -283 -418 -364 -604 -18 -40 -63 -130 -99 -199 -57 -108
-82 -142 -167 -232 -109 -115 -264 -293 -307 -351 -15 -21 -42 -63 -60 -96
-18 -32 -47 -77 -64 -100 -18 -23 -38 -59 -44 -80 -34 -105 -94 -188 -143
-201 -23 -6 -45 -26 -77 -69 -55 -74 -116 -169 -152 -237 -37 -69 -35 -47 8
81 19 59 42 142 50 183 17 87 35 175 59 280 9 41 23 104 30 140 8 36 37 133
65 215 60 175 79 246 124 460 9 39 24 113 36 165 11 53 25 147 30 210 13 143
37 355 51 439 5 35 33 116 61 180 54 125 73 181 83 251 3 25 13 77 22 115 55
254 87 353 172 532 66 141 68 148 76 246 5 66 21 109 72 189 13 21 36 71 52
111 16 40 45 102 64 138 19 35 42 93 52 129 60 221 132 408 196 502 23 35 90
108 147 163 135 128 242 236 367 370 54 59 115 115 135 125 43 22 271 99 325
110 82 16 127 11 183 -20z m-7612 -2151 c74 -16 164 -34 201 -39 141 -17 239
-33 278 -44 70 -21 324 -199 426 -299 157 -154 204 -258 310 -679 5 -21 19
-61 32 -90 22 -51 39 -100 123 -373 20 -66 60 -192 88 -280 29 -88 62 -194 75
-235 12 -41 40 -132 62 -201 52 -162 77 -317 78 -480 1 -42 5 -89 10 -105 6
-16 17 -97 25 -180 8 -83 18 -157 21 -166 4 -11 -5 -20 -32 -31 -174 -70 -321
-147 -415 -218 l-77 -58 -4 182 c-3 100 -12 254 -21 342 -58 564 -61 592 -81
671 -9 38 -25 87 -36 109 -10 22 -30 71 -44 109 -14 38 -29 74 -34 80 -5 6
-12 21 -16 34 -9 31 -110 208 -141 249 -14 18 -34 33 -44 33 -17 0 -18 3 -9
27 6 15 21 70 35 123 85 325 111 509 79 569 -14 27 -21 32 -48 29 l-32 -3 0
-85 c-1 -80 -11 -148 -50 -315 -9 -38 -21 -88 -26 -110 -17 -76 -47 -171 -94
-295 -56 -151 -92 -287 -150 -570 -15 -74 -31 -139 -44 -190 -6 -19 -17 -60
-25 -90 -53 -195 -100 -330 -153 -434 -14 -28 -67 -107 -117 -176 -217 -294
-254 -347 -269 -375 -39 -74 -118 -133 -222 -165 -38 -11 -90 -32 -115 -46
-57 -32 -120 -47 -187 -45 -133 4 -191 3 -225 -4 -21 -4 -49 -4 -63 -1 -34 9
-143 112 -220 210 -36 45 -87 100 -114 123 -70 61 -107 132 -147 288 -20 77
-58 159 -103 220 -107 144 -160 257 -196 415 -9 41 -23 102 -32 136 -34 141
-51 415 -51 829 0 353 18 549 62 655 43 107 132 231 248 350 181 184 261 249
403 324 181 97 221 120 286 167 155 111 245 134 528 138 116 1 150 -3 267 -30z
m776 -1792 c91 -144 215 -440 239 -567 11 -60 31 -245 49 -440 6 -69 15 -146
21 -172 6 -26 14 -166 18 -310 6 -220 5 -265 -7 -278 -11 -11 -16 -12 -19 -3
-3 8 -18 11 -46 7 -31 -4 -50 0 -74 15 -27 17 -36 35 -63 116 -17 55 -43 113
-60 133 -16 21 -48 82 -72 137 -38 90 -51 109 -133 193 -96 100 -134 127 -165
117 -14 -4 -19 -2 -16 7 67 210 115 399 166 648 43 208 111 440 129 440 3 0
18 -19 33 -43z m1955 -750 c78 -82 89 -111 144 -368 17 -83 8 -182 -25 -259
-15 -36 -30 -75 -33 -87 -8 -35 5 -70 28 -76 22 -6 69 11 69 24 0 4 12 14 27
21 20 9 29 23 34 48 8 52 31 89 91 146 79 77 168 129 259 154 126 34 484 61
542 40 51 -17 365 -25 411 -10 28 9 41 9 49 1 17 -17 54 -13 69 8 8 11 29 20
56 22 l42 5 0 -79 c0 -77 0 -78 -59 -175 -32 -53 -75 -130 -95 -170 -41 -81
-114 -182 -148 -204 -26 -17 -69 -31 -148 -49 -30 -6 -61 -16 -67 -22 -21 -16
-15 -64 9 -81 29 -21 87 -21 94 -1 4 8 12 15 20 15 32 0 141 52 172 83 19 17
52 55 73 84 l39 52 37 -24 c58 -40 514 -257 566 -270 14 -4 54 -31 89 -61 34
-30 84 -71 110 -91 46 -36 47 -38 41 -80 -7 -49 7 -73 43 -73 13 0 29 9 36 20
7 11 16 20 20 20 5 0 41 -23 80 -51 86 -61 207 -174 263 -245 75 -96 175 -229
228 -301 29 -40 94 -125 146 -190 121 -153 193 -297 240 -483 27 -106 50 -185
66 -230 16 -45 36 -122 74 -285 65 -278 62 -263 94 -486 8 -53 17 -101 21
-107 4 -6 11 -60 16 -119 6 -59 14 -135 19 -168 5 -33 10 -184 10 -336 1 -327
8 -358 107 -496 15 -20 13 -22 -36 -49 -53 -29 -72 -62 -50 -89 14 -17 66 -20
75 -5 3 5 15 15 27 21 19 10 20 9 15 -23 -16 -104 -30 -161 -51 -209 -13 -30
-26 -85 -30 -123 -9 -92 -26 -127 -94 -200 -58 -63 -80 -104 -138 -271 -30
-85 -91 -183 -171 -274 -27 -31 -68 -84 -91 -118 -40 -58 -117 -134 -190 -185
-145 -103 -183 -126 -221 -141 -25 -9 -46 -15 -48 -13 -5 4 45 151 73 213 12
29 43 74 68 101 39 42 46 55 46 90 0 48 -22 103 -83 203 -24 41 -61 106 -82
144 -21 39 -54 87 -74 109 -39 41 -144 95 -238 122 -79 22 -239 114 -332 191
-74 61 -104 78 -306 173 -211 99 -402 176 -490 199 -123 31 -230 51 -274 51
-48 0 -51 2 -51 25 0 17 -8 29 -25 37 -37 17 -65 -9 -100 -91 -24 -57 -42 -82
-92 -126 -46 -41 -69 -55 -92 -55 -37 0 -130 34 -227 83 -63 32 -77 44 -131
120 -53 75 -60 89 -61 135 l-1 51 54 25 c48 22 109 66 215 155 57 47 83 110
78 187 -3 52 -9 69 -31 92 -43 45 -93 54 -272 48 -240 -7 -496 -25 -529 -38
-15 -6 -41 -29 -57 -51 -65 -90 -19 -235 97 -308 18 -10 49 -35 70 -55 30 -28
102 -81 121 -89 1 -1 -1 -35 -6 -77 -7 -63 -15 -86 -46 -132 -41 -63 -71 -80
-156 -91 -30 -4 -84 -21 -122 -37 -63 -29 -70 -30 -109 -19 -88 27 -155 87
-212 192 -28 51 -35 73 -30 96 5 24 1 35 -17 52 -27 25 -100 29 -118 7 -7 -8
-26 -17 -44 -20 -151 -29 -438 -153 -592 -256 -38 -26 -105 -67 -149 -91 -60
-34 -98 -66 -164 -137 -98 -106 -252 -330 -283 -411 -58 -153 -79 -220 -79
-261 l-1 -45 -35 40 c-74 86 -122 170 -215 375 -52 117 -78 159 -129 210 -40
40 -40 40 -119 40 l-79 0 -49 -55 c-65 -73 -86 -133 -82 -233 4 -73 8 -86 77
-222 39 -80 72 -148 72 -152 0 -3 -37 14 -82 38 -46 24 -121 64 -168 89 -47
24 -107 63 -135 86 -59 50 -102 69 -150 69 -29 0 -35 4 -35 21 0 12 -31 68
-69 125 -41 60 -76 126 -85 156 -8 29 -20 71 -26 93 -14 45 -26 445 -16 499 4
22 14 37 26 41 31 10 41 37 25 69 -13 25 -12 33 11 91 14 35 49 95 78 134 29
38 58 88 66 110 l13 41 -49 71 -49 72 1 321 c0 352 -3 321 73 581 16 55 48
170 71 255 23 85 48 170 56 188 8 18 14 44 14 57 0 14 7 42 15 62 8 21 25 81
39 133 50 188 79 259 169 402 108 172 229 332 349 464 41 44 101 122 134 173
208 328 216 336 419 450 83 46 164 95 182 107 17 13 35 24 40 24 4 0 33 24 65
53 103 97 239 174 526 297 28 12 52 26 52 30 0 4 27 28 60 54 67 53 181 99
297 122 198 38 261 110 451 516 15 32 30 57 33 58 3 0 29 -24 56 -53z m-2260
-406 c30 -12 130 -117 230 -241 65 -81 146 -203 229 -345 58 -99 58 -96 -13
-135 -42 -23 -43 -23 -64 -4 -51 45 -161 209 -222 330 -53 104 -79 142 -128
191 -34 34 -79 69 -100 79 -22 9 -39 23 -39 31 0 7 14 41 31 75 24 48 33 58
40 46 5 -8 21 -21 36 -27z m2985 -4037 c17 -10 8 -81 -13 -105 l-20 -24 7 35
c8 41 8 79 1 87 -4 3 -21 9 -39 14 -29 8 -27 8 11 3 24 -2 48 -7 53 -10z
m-1280 -561 c9 -10 35 -53 59 -97 48 -86 136 -177 193 -197 32 -12 34 -15 29
-47 -5 -30 -2 -39 19 -56 15 -12 36 -50 51 -91 33 -93 103 -341 122 -435 17
-80 36 -110 70 -110 31 0 52 28 59 82 6 37 3 55 -14 89 -12 23 -46 121 -75
218 -30 97 -63 205 -75 239 -23 75 -24 82 -7 82 6 0 35 12 62 25 68 34 92 33
100 -5 4 -16 11 -32 16 -35 5 -4 9 -31 9 -62 0 -68 17 -127 43 -150 16 -15 35
-18 111 -15 124 3 230 3 300 0 64 -2 86 13 86 59 0 13 5 32 12 42 9 15 9 25 0
46 -18 40 -15 89 8 110 21 19 26 50 10 60 -5 3 -10 10 -10 15 0 5 39 -10 87
-33 80 -38 95 -42 183 -45 l95 -4 83 83 c45 46 82 87 82 93 0 6 7 1 15 -10 7
-12 40 -31 73 -42 46 -17 65 -31 89 -64 33 -47 76 -128 88 -168 4 -14 26 -65
48 -115 38 -86 57 -148 77 -260 5 -27 14 -68 20 -90 5 -22 15 -78 21 -125 10
-79 17 -137 36 -333 7 -70 11 -82 37 -104 29 -25 64 -25 93 -1 18 14 16 63 -2
78 -10 9 -15 32 -15 76 0 88 -36 361 -70 535 -54 271 -107 395 -239 559 -33
41 -59 76 -57 77 1 2 25 -3 52 -11 27 -8 67 -17 89 -21 22 -4 58 -15 80 -25
22 -10 72 -29 110 -43 166 -60 538 -238 689 -330 72 -43 160 -93 195 -109 84
-40 209 -115 244 -147 16 -14 39 -44 52 -66 12 -22 52 -92 88 -155 88 -154 88
-156 36 -222 -41 -52 -84 -135 -109 -213 -7 -22 -21 -49 -31 -60 -10 -11 -27
-42 -38 -68 -11 -26 -32 -63 -46 -81 -14 -18 -25 -42 -25 -54 0 -18 -165 -207
-223 -255 -12 -10 -51 -46 -86 -80 -35 -34 -60 -53 -55 -42 9 24 6 220 -7 370
-5 61 -9 185 -9 277 0 138 -3 169 -16 182 -19 19 -25 20 -47 4 -21 -17 -35
-84 -26 -125 3 -18 9 -173 13 -345 6 -279 5 -322 -11 -398 l-18 -84 -60 -34
c-85 -48 -360 -186 -425 -213 -30 -12 -91 -45 -135 -72 -139 -87 -149 -92
-205 -114 -30 -12 -77 -28 -105 -36 -197 -57 -303 -82 -312 -74 -3 3 2 34 11
69 22 91 40 326 32 444 -5 83 -3 104 9 114 39 33 -17 140 -74 140 -45 0 -51
-15 -51 -126 0 -78 -3 -104 -15 -114 -12 -10 -15 -38 -15 -129 0 -117 -29
-293 -61 -369 -11 -26 -11 -36 -1 -52 17 -28 16 -29 -178 -80 -41 -11 -97 -20
-125 -20 -64 -1 -161 -14 -250 -35 -174 -40 -619 -103 -633 -90 -8 8 23 52 55
78 57 49 66 72 139 386 29 127 37 182 41 303 4 102 10 147 17 145 20 -8 46 14
46 38 0 16 -12 34 -35 52 -22 18 -35 37 -35 51 0 39 -30 92 -56 98 -56 14 -72
-15 -54 -92 16 -65 5 -159 -41 -345 -16 -68 -41 -183 -54 -255 -23 -123 -68
-271 -115 -376 -21 -48 -86 -112 -103 -101 -5 3 -44 9 -86 13 -100 11 -149 31
-246 105 -154 116 -170 123 -318 141 -46 5 -50 9 -122 97 -84 105 -94 113
-190 142 -66 20 -70 23 -82 61 -18 61 -16 239 3 269 14 21 14 26 -1 55 -15 29
-15 33 0 50 10 11 34 20 61 22 41 3 45 2 38 -17 -17 -51 -16 -103 3 -122 10
-10 20 -28 21 -38 8 -44 43 -59 90 -39 34 14 52 56 35 83 -8 12 1 34 37 91 83
135 102 219 81 360 -7 41 -16 112 -21 158 -12 104 -33 179 -75 262 -44 88
-278 320 -323 320 -35 0 -52 -16 -52 -52 0 -18 8 -33 25 -44 13 -9 27 -24 30
-34 3 -11 16 -22 28 -26 26 -7 102 -78 127 -117 14 -23 16 -34 7 -58 -6 -16
-17 -29 -24 -29 -8 0 -62 28 -121 62 -59 33 -126 72 -149 85 -43 24 -52 36
-33 48 16 10 12 65 -5 71 -38 15 -3 171 76 329 39 80 160 255 234 339 44 50
85 83 155 124 52 30 127 76 165 102 106 70 246 137 380 181 66 22 131 44 145
48 40 14 56 12 72 -6z m1041 -143 c29 0 29 -1 14 -18 -10 -10 -17 -28 -17 -40
0 -11 -4 -24 -10 -27 -12 -8 -13 -62 -1 -69 4 -3 11 -34 14 -68 3 -35 9 -72
12 -83 6 -19 1 -20 -161 -20 -158 0 -167 1 -175 20 -11 28 -11 215 0 215 5 0
26 15 45 34 43 40 96 55 96 28 2 -59 20 -164 30 -177 19 -22 48 -18 66 10 17
25 16 108 -2 179 -7 28 -6 29 26 23 18 -4 46 -7 63 -7z m-2810 -423 c19 -23
58 -94 86 -157 98 -216 131 -273 234 -402 48 -60 95 -105 146 -141 93 -65 212
-137 227 -137 6 0 32 -17 59 -37 42 -33 55 -38 100 -38 38 0 59 5 74 19 16 15
22 16 26 5 44 -120 65 -201 65 -254 0 -72 -27 -162 -43 -146 -7 7 -15 7 -25
-2 -9 -7 -66 -14 -146 -18 -72 -4 -162 -14 -201 -24 -38 -9 -101 -19 -140 -22
-55 -4 -65 -7 -46 -14 20 -8 23 -15 19 -45 l-4 -37 87 6 c48 3 96 10 107 16
10 5 42 13 70 17 43 5 51 4 46 -7 -13 -29 -148 -140 -212 -175 -127 -70 -167
-98 -269 -192 -90 -82 -107 -104 -142 -175 -21 -45 -58 -140 -82 -210 -49
-146 -74 -182 -172 -245 -113 -75 -186 -54 -264 73 l-43 69 0 101 c0 103 12
165 50 268 61 161 272 341 463 393 33 9 73 29 93 46 29 26 39 29 73 23 35 -6
43 -3 78 28 21 19 47 39 58 45 17 10 13 11 -29 12 -49 0 -112 14 -152 32 -15
7 -28 7 -42 -1 -13 -7 -89 -11 -200 -11 -204 0 -274 14 -353 72 -24 18 -109
68 -189 111 -196 107 -274 160 -321 220 -71 90 -74 98 -74 242 0 125 1 132 29
178 34 56 66 82 163 131 114 57 144 52 256 -37 38 -30 163 -99 382 -210 112
-56 151 -82 195 -127 30 -32 71 -68 90 -82 43 -31 172 -75 243 -83 129 -14
167 -28 224 -77 l54 -48 88 0 c67 0 92 -4 101 -15 16 -19 53 -19 89 0 36 18
45 42 27 70 -18 27 -73 39 -172 36 -61 -2 -81 2 -140 29 -37 17 -89 44 -115
60 -25 17 -59 30 -76 30 -43 0 -188 37 -240 62 -47 22 -132 110 -193 198 -52
77 -166 296 -190 365 -25 73 -25 98 1 155 29 65 66 100 105 100 25 0 39 -9 67
-43z m4621 -1952 c8 -22 15 -52 16 -67 0 -15 5 -39 11 -55 14 -39 31 -500 32
-908 1 -397 -5 -454 -86 -725 -42 -144 -48 -187 -57 -440 -11 -289 -25 -480
-39 -535 -6 -22 -20 -80 -31 -130 -38 -161 -44 -168 -130 -153 -85 16 -674
-17 -730 -40 -14 -6 -50 -17 -80 -26 -184 -50 -197 -57 -186 -101 8 -30 47
-42 90 -27 17 6 90 26 161 46 114 31 154 36 330 46 110 6 232 14 271 17 59 4
93 -1 188 -26 171 -45 188 -54 257 -146 75 -100 81 -114 90 -199 5 -45 11 -97
14 -116 6 -32 4 -36 -24 -47 -40 -15 -49 -39 -27 -76 l17 -30 -37 -38 -37 -38
-28 21 c-27 20 -29 20 -53 4 -15 -9 -26 -21 -26 -26 0 -6 -4 -10 -10 -10 -15
0 -12 41 5 70 22 39 19 184 -5 255 -25 73 -37 87 -69 83 -45 -5 -53 -41 -25
-115 28 -74 31 -143 8 -179 -14 -21 -16 -43 -10 -139 l6 -115 -40 -26 c-40
-27 -41 -27 -183 -21 -78 3 -154 10 -169 16 l-27 10 16 48 c39 113 24 311 -35
466 -28 73 -50 94 -81 78 -28 -15 -30 -53 -9 -113 28 -75 49 -171 55 -255 5
-70 4 -73 -17 -73 -29 0 -58 -16 -98 -53 -25 -25 -45 -33 -90 -38 -31 -4 -93
-13 -137 -19 -44 -6 -114 -10 -156 -8 -67 3 -83 7 -120 34 -24 16 -80 45 -124
64 -141 60 -170 85 -201 173 -25 71 -46 205 -34 227 14 27 12 56 -5 74 -14 14
-15 91 -11 673 4 573 14 1008 30 1233 4 67 26 203 47 300 20 89 -4 133 -61
115 -21 -7 -22 -10 -40 -125 -6 -41 -16 -93 -22 -115 -11 -41 -20 -181 -38
-605 -5 -135 -13 -252 -17 -260 -10 -21 -22 -226 -29 -505 -3 -132 -10 -244
-15 -249 -11 -12 -11 -377 0 -452 6 -45 5 -51 -10 -47 -9 3 -40 -3 -69 -11
-71 -21 -113 -20 -224 5 l-93 22 14 66 c8 36 12 74 9 83 -2 10 0 35 5 55 5 21
14 61 20 88 6 28 12 214 15 415 5 366 -1 449 -30 468 -23 14 -38 124 -47 346
-5 121 -13 255 -18 296 -5 41 -13 156 -17 256 -7 173 -8 183 -33 220 -29 42
-70 56 -98 32 -19 -15 -14 -106 11 -203 21 -84 36 -313 45 -710 5 -187 11
-358 15 -380 6 -35 4 -41 -16 -50 -23 -10 -23 -12 -20 -160 2 -82 8 -168 13
-190 5 -22 12 -157 16 -300 l6 -260 -38 -120 c-60 -190 -125 -304 -195 -343
-19 -10 -66 -36 -105 -57 -38 -21 -83 -47 -98 -58 -26 -18 -50 -20 -259 -23
-220 -4 -233 -3 -265 17 -58 36 -73 81 -73 216 0 65 7 147 14 183 28 133 30
173 8 194 -40 35 -92 -13 -92 -86 -1 -18 -7 -60 -15 -93 -9 -38 -15 -112 -15
-200 0 -118 4 -147 20 -184 11 -24 20 -45 20 -47 0 -19 -289 43 -316 67 -11
10 -26 19 -33 19 -22 0 -70 40 -86 70 -30 58 -11 182 52 339 31 77 23 111 -26
111 -34 0 -54 -26 -82 -108 -59 -170 -75 -302 -44 -362 18 -35 15 -36 -28 -14
-77 40 -147 120 -147 168 0 44 33 139 69 195 15 25 39 66 54 91 25 45 52 70
134 122 50 32 73 72 73 128 0 22 3 40 8 41 95 12 232 21 370 25 164 5 176 4
250 -20 92 -29 212 -84 212 -97 0 -4 10 -13 21 -20 27 -14 61 0 83 33 25 39
10 65 -51 88 -29 11 -73 30 -96 41 -23 12 -82 34 -132 50 -85 27 -100 29 -268
29 -98 0 -197 -4 -220 -10 -23 -5 -74 -11 -113 -12 l-72 -4 -6 41 c-3 22 -13
81 -21 130 -8 50 -20 128 -26 175 -5 47 -15 99 -22 115 -8 22 -12 351 -15
1218 l-3 1189 33 -7 c86 -18 126 -46 195 -131 79 -99 138 -134 223 -134 60 0
102 -19 197 -91 147 -112 220 -142 366 -153 68 -6 93 -12 108 -27 25 -25 57
-24 86 3 26 24 74 35 223 48 58 5 128 14 155 20 28 6 82 15 120 20 81 10 203
34 226 44 18 8 125 22 261 35 55 6 131 21 175 36 50 17 87 23 106 19 21 -4 35
-1 50 13 24 21 107 49 177 59 41 5 104 23 280 76 86 26 186 75 290 140 47 30
114 67 150 83 36 17 142 68 235 115 l170 85 22 -60 c12 -33 28 -78 37 -100z
m-3961 -2505 c9 -74 23 -173 32 -220 26 -147 34 -212 37 -313 l4 -99 -50 -32
c-64 -41 -129 -111 -159 -173 -14 -26 -38 -73 -55 -103 -17 -30 -36 -74 -43
-97 l-12 -43 -96 0 c-66 -1 -131 -9 -206 -26 -60 -14 -146 -31 -190 -39 -254
-43 -310 -54 -367 -72 -55 -17 -369 -13 -453 5 -27 6 -97 35 -155 64 -100 51
-112 60 -264 213 -175 176 -309 337 -348 418 -14 28 -35 88 -47 132 -22 80
-68 201 -135 350 -19 44 -38 100 -42 125 -3 25 -26 118 -50 208 -51 190 -56
273 -24 417 38 177 92 295 178 394 67 76 98 97 170 112 93 19 322 98 377 129
45 26 63 30 124 30 63 0 191 -26 222 -46 23 -14 145 -107 167 -127 12 -11 22
-31 22 -43 0 -13 12 -32 29 -46 36 -28 76 -83 145 -198 72 -119 71 -114 26
-144 -84 -55 -59 -146 39 -146 31 0 45 -12 56 -50 4 -14 25 -65 48 -115 37
-81 42 -101 49 -202 8 -115 19 -168 61 -288 19 -56 29 -72 50 -79 21 -8 31 -6
47 9 26 24 25 36 -11 125 -31 78 -46 155 -58 300 -6 71 -14 102 -50 180 -61
135 -69 154 -76 192 -6 34 -5 35 37 47 24 8 90 19 148 27 58 7 137 20 175 28
39 7 70 13 71 12 21 -45 34 -126 34 -214 0 -84 3 -109 17 -124 21 -23 45 -23
67 1 15 16 17 43 17 192 0 255 54 662 116 879 20 71 93 243 132 312 17 29 37
73 46 98 9 25 28 70 44 100 16 30 36 80 46 110 10 30 20 60 24 65 3 6 9 -465
12 -1045 5 -895 8 -1076 22 -1190z m4197 1994 c36 -93 113 -373 190 -691 6
-23 4 -36 -6 -44 -21 -17 -18 -123 7 -242 11 -55 23 -105 26 -110 6 -10 21
-206 30 -387 3 -69 9 -130 15 -136 5 -7 25 -14 46 -16 20 -3 45 -8 54 -12 11
-5 24 0 38 14 21 21 22 29 17 109 -6 87 -24 269 -28 286 -1 6 1 23 6 38 6 22
11 26 29 21 48 -13 176 -78 248 -126 68 -44 76 -53 67 -69 -14 -27 5 -59 37
-59 14 0 24 -3 22 -7 -2 -5 -20 -44 -41 -88 -21 -44 -72 -165 -114 -270 -41
-104 -84 -205 -95 -223 -21 -34 -21 -34 -1 -60 11 -15 28 -29 37 -30 20 -4 66
35 66 56 0 32 141 376 226 549 41 83 74 154 74 158 0 24 87 217 124 272 88
134 163 183 369 244 54 16 87 19 160 16 158 -8 309 -26 362 -43 79 -27 165
-76 193 -110 27 -34 59 -106 73 -164 5 -19 16 -64 25 -100 8 -36 20 -99 25
-140 4 -41 13 -92 19 -112 36 -126 43 -326 16 -448 -9 -41 -23 -113 -31 -160
-29 -168 -55 -271 -83 -325 -8 -16 -62 -79 -120 -140 -57 -60 -116 -126 -130
-145 -42 -56 -149 -177 -252 -285 -53 -55 -117 -124 -143 -154 -26 -29 -58
-62 -73 -73 -33 -26 -163 -76 -234 -90 -162 -32 -489 12 -755 101 -94 31 -296
59 -436 60 l-77 1 -7 118 c-7 133 -16 165 -63 242 -63 101 -135 174 -201 204
-53 24 -60 30 -51 45 14 28 61 207 72 276 5 33 13 83 19 110 6 28 15 158 20
290 11 304 23 467 37 502 6 15 20 64 32 108 12 44 26 96 31 115 12 41 26 116
41 215 6 46 8 250 5 590 l-5 520 30 -65 c16 -36 42 -97 58 -136z m-4375 137
c-21 -43 -29 -39 -8 4 9 19 18 33 21 31 2 -2 -4 -18 -13 -35z m-37 -71 c-10
-31 -28 -50 -28 -30 0 11 29 60 36 60 1 0 -2 -14 -8 -30z m-311 -433 c7 -24 6
-47 -3 -83 -40 -146 -53 -258 -53 -481 -1 -126 -3 -142 -18 -147 -41 -11 -163
-35 -233 -46 -41 -6 -97 -15 -123 -20 -27 -6 -55 -10 -62 -10 -7 0 -30 30 -51
68 -20 37 -72 120 -115 185 -44 64 -79 124 -79 132 0 53 155 315 197 334 65
30 155 60 198 66 25 4 65 13 88 21 23 7 87 13 143 13 l101 1 10 -33z"/>
<path d="M8913 12267 c-18 -7 -82 -61 -141 -122 -60 -60 -136 -133 -168 -162
-33 -28 -80 -70 -106 -93 -67 -59 -109 -126 -107 -170 2 -21 -6 -49 -19 -70
-27 -43 -28 -91 -4 -113 21 -19 57 -22 67 -7 3 6 16 10 29 10 26 0 83 39 176
121 93 81 127 99 182 99 94 0 219 40 266 84 50 46 62 77 62 153 0 93 -24 155
-85 221 -55 59 -94 71 -152 49z m132 -316 c-16 -33 -61 -68 -72 -57 -3 3 -1 6
5 6 20 0 52 39 52 63 0 13 6 29 13 36 19 20 21 -12 2 -48z"/>
<path d="M11335 12154 c-57 -17 -85 -44 -85 -83 0 -14 10 -66 21 -115 25 -101
52 -136 154 -196 50 -30 71 -36 144 -42 184 -14 267 -25 291 -38 39 -21 113
-37 140 -30 32 8 40 54 13 81 -10 10 -38 41 -63 69 -117 133 -209 224 -250
248 -25 14 -65 40 -90 58 -92 65 -170 79 -275 48z m75 -104 c0 -5 -14 -10 -31
-10 -17 0 -28 4 -24 10 3 6 17 10 31 10 13 0 24 -4 24 -10z"/>
<path d="M8690 10770 c-82 -13 -162 -46 -244 -100 -77 -52 -158 -132 -179
-177 -6 -15 -22 -37 -34 -49 -50 -51 -122 -232 -143 -367 -16 -98 -8 -330 15
-412 66 -241 237 -427 442 -480 279 -73 584 111 734 440 117 259 112 592 -13
827 -121 227 -350 353 -578 318z m249 -378 c48 -50 122 -197 128 -255 8 -67
-25 -129 -81 -156 -85 -41 -230 -20 -282 42 -25 30 -26 36 -20 107 4 52 14 92
34 130 25 51 29 55 58 52 38 -4 50 10 58 71 7 44 9 47 38 47 23 0 41 -10 67
-38z m-455 -631 c9 -10 21 -46 27 -80 11 -60 10 -63 -17 -102 -54 -78 -107
-97 -141 -52 -32 41 3 205 50 238 29 20 60 19 81 -4z"/>
<path d="M11696 10354 c-49 -13 -108 -35 -130 -49 -23 -13 -58 -33 -78 -44
-35 -20 -120 -117 -178 -202 -14 -20 -74 -89 -133 -153 -121 -132 -157 -191
-139 -230 8 -19 21 -26 59 -32 46 -7 48 -6 83 33 35 39 58 54 135 88 35 16 69
18 275 16 l235 -2 106 -35 c59 -19 146 -52 193 -74 104 -48 133 -50 170 -11
47 49 33 71 -82 127 -53 27 -108 56 -121 66 -13 10 -33 16 -45 13 -21 -6 -47
-1 -181 31 -43 10 -140 19 -248 23 l-179 6 67 55 c133 110 196 131 435 139
116 4 193 11 207 19 26 15 199 16 208 2 11 -17 43 -11 71 13 22 19 26 29 20
50 -7 30 -38 46 -131 66 -105 24 -168 43 -250 77 -73 31 -87 34 -180 33 -73 0
-124 -7 -189 -25z"/>
<path d="M5341 9241 c-66 -62 -24 -112 137 -165 379 -125 783 -240 887 -252
73 -9 95 9 95 76 0 51 -16 74 -47 68 -10 -2 -22 -13 -28 -26 -5 -12 -19 -22
-30 -22 -33 0 -231 55 -447 124 -112 35 -263 83 -335 106 -129 39 -133 42
-133 68 0 58 -50 69 -99 23z"/>
</g>
</svg>
